<?xml version="1.0" encoding="UTF-8"?>
<svg width="24px" height="24px" viewBox="0 0 24 24" version="1.1" xmlns="http://www.w3.org/2000/svg" xmlns:xlink="http://www.w3.org/1999/xlink">
    <!-- Generator: Sketch 53.2 (72643) - https://sketchapp.com -->
    <title>messenger</title>
    <desc>Created with Sketch.</desc>
    <g id="Page-1" stroke="none" stroke-width="1" fill="none" fill-rule="evenodd">
        <g id="Desktop-HD" transform="translate(-1228.000000, -23.000000)" fill="#FFFFFF" fill-rule="nonzero">
            <g id="Nav-Bar">
                <g id="Contact-Me" transform="translate(1138.000000, 13.000000)">
                    <g id="messenger" transform="translate(90.000000, 10.000000)">
                        <path d="M3.33333333,24 C2.9651435,24 2.66666667,23.6839657 2.66666667,23.2941176 L2.13333333,17.6470588 C0.773233341,15.8404363 0.0223541421,13.6043622 0,11.2941176 C0,5.06823529 5.33333333,0 12,0 C18.6666667,0 24,5.06823529 24,11.2941176 C24,17.52 18.6666667,22.5882353 12,22.5882353 C10.7971142,22.5896307 9.59958192,22.4186677 8.44,22.08 L3.56,23.9576471 C3.48740699,23.9858565 3.41066069,24.0001966 3.33333333,24 Z M12,1.41176471 C6.12,1.41176471 1.33333333,5.84470588 1.33333333,11.2941176 C1.35498397,13.3589056 2.04706878,15.3529074 3.29333333,16.9411765 C3.37450723,17.0460721 3.42542607,17.1735053 3.44,17.3082353 L3.90666667,22.2635294 L8.18666667,20.6117647 C8.32096504,20.5653991 8.46570163,20.5653991 8.6,20.6117647 C9.70182081,20.9719949 10.846928,21.1621857 12,21.1764706 C17.88,21.1764706 22.6666667,16.7435294 22.6666667,11.2941176 C22.6666667,5.84470588 17.88,1.41176471 12,1.41176471 Z" id="Shape"></path>
                        <path d="M12.6666667,14.1176471 C12.3859799,14.1175206 12.1354335,13.931257 12.04,13.6517647 L10.96,10.3764706 L6.29333333,12.8329412 C6.07921282,12.9693605 5.81101964,12.9675337 5.59857444,12.8282089 C5.38612924,12.688884 5.26511262,12.435461 5.28507889,12.1717123 C5.30504515,11.9079636 5.46264091,11.6781864 5.69333333,11.5764706 L11.0266667,8.75294118 C11.2051989,8.64479462 11.4208819,8.62996001 11.6111275,8.71274215 C11.8013731,8.79552429 11.9448783,8.96665354 12,9.17647059 L13.0933333,12.48 L17.76,10.1929412 C18.0950441,10.0292546 18.4919745,10.1841195 18.6466027,10.5388548 C18.8012309,10.8935901 18.6550115,11.3138857 18.32,11.4776471 L12.9866667,14.1035294 C12.8826682,14.1356978 12.7728321,14.1405435 12.6666667,14.1176471 L12.6666667,14.1176471 Z" id="Path"></path>
                    </g>
                </g>
            </g>
        </g>
    </g>
</svg>