<svg xmlns="http://www.w3.org/2000/svg" viewBox="0 0 18 17.000002"><path d="M2.5 17a.5.5 0 0 1-.5-.5l-.4-4A7.34 7.34 0 0 1 0 8c0-4.41 4-8 9-8s9 3.59 9 8-4 8-9 8a10 10 0 0 1-2.67-.36l-3.66 1.33a.49.49 0 0 1-.17.03zM9 1C4.59 1 1 4.14 1 8a6.37 6.37 0 0 0 1.47 4 .5.5 0 0 1 .11.26l.35 3.51 3.21-1.17a.5.5 0 0 1 .31 0A9 9 0 0 0 9 15c4.41 0 8-3.14 8-7s-3.59-7-8-7z"/><path d="M9.5 10a.5.5 0 0 1-.47-.33l-.81-2.32-3.5 1.74a.5.5 0 1 1-.45-.89l4-2a.5.5 0 0 1 .73.3l.82 2.34 3.5-1.62a.50112374.50112374 0 0 1 .42.91l-4 1.86a.5.5 0 0 1-.24.01z"/></svg>