<?xml version="1.0" encoding="UTF-8"?>
<svg width="72px" height="73px" viewBox="0 0 72 73" version="1.1" xmlns="http://www.w3.org/2000/svg" xmlns:xlink="http://www.w3.org/1999/xlink">
    <!-- Generator: Sketch 44.1 (41455) - http://www.bohemiancoding.com/sketch -->
    <title>Shape</title>
    <desc>Created with Sketch.</desc>
    <defs></defs>
    <g id="Page-1" stroke="none" stroke-width="1" fill="none" fill-rule="evenodd">
        <g id="noun_1058491_cc" transform="translate(-14.000000, 0.000000)" fill-rule="nonzero" fill="#000000">
            <path d="M15.299261,32.0724029 L43.8830024,43.0626619 L54.8767491,71.6373352 C55.1765785,72.4366268 55.8761806,72.936184 56.775669,72.936184 C56.775669,72.936184 56.775669,72.936184 56.775669,72.936184 C57.5752142,72.936184 58.3747594,72.4366268 58.6745888,71.6373352 L85.8591261,3.69755251 C86.1589556,2.99817239 85.9590693,2.09896938 85.4593535,1.49950071 C84.8596946,0.900032043 84.0601494,0.800120598 83.2606042,1.09985493 L15.299261,28.275768 C14.4997158,28.5755024 14,29.2748825 14,30.1740855 C14,30.973377 14.4997158,31.7726686 15.299261,32.0724029 Z M80.3622528,6.59498442 L56.775669,65.4428256 L48.0806148,42.7629276 L59.5740772,31.2731114 C60.3736224,30.4738198 60.3736224,29.2748825 59.5740772,28.4755909 C58.774532,27.6762993 57.5752142,27.6762993 56.775669,28.4755909 L45.7819223,39.4658499 L21.4957364,30.074174 L80.3622528,6.59498442 Z" id="Shape"></path>
        </g>
    </g>
</svg>