<svg width="33" height="26" xmlns="http://www.w3.org/2000/svg" xmlns:xlink="http://www.w3.org/1999/xlink"><defs><linearGradient x1="3.335%" y1="3.033%" y2="100%" id="b"><stop stop-color="#0E83EF" offset="0%"/><stop stop-color="#C30CB4" offset="51.547%"/><stop stop-color="#DA0707" offset="100%"/></linearGradient><path d="M2.677 3.355a1.678 1.678 0 0 1 0-3.355H30.63a1.677 1.677 0 1 1 0 3.355H2.677zm.001 11.181a1.677 1.677 0 1 1 0-3.355h27.951a1.677 1.677 0 0 1 0 3.354H2.678v.001zm0 11.18a1.678 1.678 0 1 1 0-3.354h27.951a1.677 1.677 0 0 1 0 3.354H2.678z" id="a"/></defs><g fill="none" fill-rule="evenodd"><use fill="#6E6E6E" xlink:href="#a"/><use fill="url(#b)" xlink:href="#a"/></g></svg>