<svg xmlns="http://www.w3.org/2000/svg" width="32" height="31" fill="#0080f7" fill-rule="nonzero"><path d="M29.68 30.6H2.78C1.4 30.6 0 29.125 0 27.733V6.864c0-1.3 1.16-2.226 2.783-2.226h6.03c.37 0 .696.325.696.696s-.325.696-.696.696h-6.03c-.557 0-1.4.232-1.4.835v20.87c0 .65.788 1.484 1.4 1.484h26.9c.5 0 .928-.788.928-1.484V6.864c0-.5-.14-.835-.928-.835H23.2c-.37 0-.696-.325-.696-.696s.325-.696.696-.696h6.493c1.438 0 2.32.835 2.32 2.226v20.87c0 1.4-.88 2.875-2.32 2.875zM16.046 19.85c-.186 0-.37-.046-.5-.186l-5.148-5.194a.67.67 0 0 1 0-.974.67.67 0 0 1 .974 0L16.5 18.7a.67.67 0 0 1 0 .974c-.14.14-.325.186-.464.186z"/><path d="M16.046 19.85c-.186 0-.37-.046-.5-.186a.67.67 0 0 1 0-.974l5.194-5.148a.67.67 0 0 1 .974 0 .67.67 0 0 1 0 .974L16.5 19.664c-.14.14-.325.186-.464.186z"/><path d="M16 19.246c-.37 0-.696-.325-.696-.696V.928c0-.37.325-.696.696-.696s.696.325.696.696V18.55c0 .37-.325.696-.696.696zm6.725 5.334H9.74c-.37 0-.696-.325-.696-.696s.325-.696.696-.696h12.986c.37 0 .696.325.696.696s-.325.696-.696.696z"/></svg>