<svg xmlns="http://www.w3.org/2000/svg" version="1" viewBox="0 0 66.204002 46.001999"><path stroke-miterlimit="10" d="M24.1 12.626c-1.657 0-3 1.343-3 3.004v-.004c0 .398.08.775.22 1.123l1.39 3.937c.073.183.18.344.313.48.273.284.656.458 1.078.458 0 4.972 4.03 9 9 9 4.972 0 9-4.028 9-9 .425 0 .807-.174 1.083-.457.13-.138.235-.3.312-.48l1.39-3.94c.14-.347.22-.724.22-1.122l-.003.004c0-1.66-1.344-3.004-3.002-3.004v-3c0-4.97-4.03-9-9-9s-9 4.03-9 9z" fill="none" stroke="#000" stroke-width="1.25" stroke-linecap="round" stroke-linejoin="round"/><path stroke-miterlimit="10" d="M24.1 12.626l2.25-3c1.962 1.963 4.518 2.957 7.09 3-.753-.777-1.217-1.833-1.218-3 1.472 1.472 3.39 2.218 5.32 2.25-.562-.584-.913-1.376-.913-2.25 1.145.764 2.415 1.174 3.697 1.267l1.772 1.733v-3c0-4.97-4.03-9-9-9-4.972 0-9 4.03-9 9v3z" fill="none" stroke="#000" stroke-width="1.25" stroke-linecap="round" stroke-linejoin="round"/><path stroke-miterlimit="10" d="M26.768 34.94c1.13-1.09 1.83-2.617 1.83-4.313v-1.213c1.328.767 2.86 1.213 4.502 1.213s3.174-.446 4.5-1.213v1.213c0 1.695.703 3.222 1.833 4.312-3.498 3.496-9.168 3.498-12.665 0z" fill="none" stroke="#000" stroke-width=".75" stroke-linecap="round" stroke-linejoin="round"/><path stroke-miterlimit="10" d="M39.433 34.94c.55.53 1.2.96 1.923 1.25l10.867 4.5c.358.146.684.36.96.624.564.548.916 1.31.916 2.157v2.157h-42V43.47c0-.847.353-1.608.917-2.156.276-.264.602-.48.962-.623l10.864-4.5c.722-.29 1.373-.72 1.924-1.25 3.497 3.498 9.167 3.496 12.665 0z" fill="none" stroke="#000" stroke-width=".75" stroke-linecap="round" stroke-linejoin="round"/><path stroke-miterlimit="10" d="M58.056 13.583c0-1.43-1.158-2.592-2.59-2.592V8.4c0-4.293-3.48-7.774-7.773-7.774-3.04 0-5.645 1.765-6.923 4.307.84 1.368 1.332 2.973 1.332 4.694v3c1.656 0 3 1.342 3 3 0 .4-.08.774-.217 1.122l-1.392 3.937c-.076.18-.183.343-.313.48-.272.284-.655.458-1.078.458 0 .754-.104 1.48-.28 2.18 1.426 1.66 3.513 2.732 5.87 2.732 4.295 0 7.774-3.48 7.774-7.773.367 0 .694-.153.93-.396.116-.12.21-.26.272-.416l1.2-3.4c.123-.3.19-.627.188-.97z" fill="none" stroke="#000" stroke-width="1.25" stroke-linecap="round" stroke-linejoin="round"/><path stroke-miterlimit="10" d="M47.697.626h-.004c-3.04 0-5.645 1.765-6.923 4.307.66 1.075 1.1 2.295 1.26 3.604 3.23 3.066 8.324 3.03 11.496-.136l1.94 2.593V8.4c0-4.293-3.48-7.774-7.77-7.774zM18.51 26.538c2.356 0 4.444-1.073 5.87-2.73-.173-.7-.28-1.428-.28-2.182-.424 0-.806-.174-1.078-.457-.133-.14-.24-.302-.31-.482l-1.394-3.938c-.14-.348-.22-.725-.22-1.123l.002.002c0-1.66 1.342-3.003 3-3.003v-3c0-1.72.493-3.326 1.33-4.694C24.156 2.39 21.55.626 18.51.626c-4.293 0-7.77 3.48-7.77 7.774v2.59c-1.433 0-2.592 1.162-2.592 2.593h-.002c0 .342.07.67.19.97l1.2 3.4c.064.157.156.295.27.415.236.243.565.396.933.396.002 4.294 3.48 7.774 7.772 7.774z" fill="none" stroke="#000" stroke-width="1.25" stroke-linecap="round" stroke-linejoin="round"/><path stroke-miterlimit="10" d="M12.7 8.357c2.1.034 4.19.846 5.794 2.45l.016-.044c1.478-1.43 3.474-2.317 5.684-2.356.17-1.26.604-2.436 1.24-3.475C24.156 2.39 21.55.625 18.51.625c-4.293 0-7.77 3.48-7.77 7.774v2.59l1.94-2.59z" fill="none" stroke="#000" stroke-width="1.25" stroke-linecap="round" stroke-linejoin="round"/><path stroke-miterlimit="10" d="M24.846 36.19c.722-.292 1.373-.72 1.924-1.252.705-.68 1.215-1.543 1.52-2.5l-2.653-1.1c-.624-.25-1.186-.62-1.66-1.08-3.02 3.02-7.917 3.02-10.937 0-.476.46-1.037.83-1.66 1.08l-9.385 3.89c-.31.124-.59.31-.83.54-.487.472-.79 1.13-.79 1.86v1.863h16.502z" fill="none" stroke="#000" stroke-width=".75" stroke-linecap="round" stroke-linejoin="round"/><path stroke-miterlimit="10" d="M13.043 30.264c3.02 3.016 7.913 3.016 10.934-.004 0 .002.002.002.003.002v-.002c-.976-.94-1.583-2.262-1.583-3.722v-1.052c-1.144.666-2.47 1.052-3.887 1.052-1.417 0-2.742-.386-3.886-1.052v1.052c0 1.46-.61 2.78-1.583 3.722l.003.002zM41.358 36.19c-.722-.292-1.373-.72-1.925-1.252-.704-.68-1.214-1.543-1.52-2.5l2.655-1.1c.623-.25 1.185-.62 1.657-1.08 3.02 3.02 7.918 3.02 10.938 0 .476.46 1.037.83 1.66 1.08l9.385 3.888c.31.125.593.312.83.54.488.473.79 1.13.79 1.86v1.864h-16.5z" fill="none" stroke="#000" stroke-width=".75" stroke-linecap="round" stroke-linejoin="round"/><path stroke-miterlimit="10" d="M53.16 30.264c-3.02 3.016-7.913 3.016-10.934-.004 0 .002 0 .002-.002.002v-.002c.975-.94 1.583-2.262 1.583-3.722v-1.052c1.144.666 2.468 1.052 3.886 1.052 1.418 0 2.742-.386 3.886-1.052v1.052c0 1.46.61 2.78 1.582 3.722v.002z" fill="none" stroke="#000" stroke-width=".75" stroke-linecap="round" stroke-linejoin="round"/></svg>