<svg xmlns="http://www.w3.org/2000/svg" version="1" viewBox="0 0 47.752998 81.25"><path stroke-miterlimit="10" fill="none" stroke="#000" stroke-width=".75" stroke-linecap="round" stroke-linejoin="round" d="M.375 20.626h1.75v7.5H.375zM.375 30.625h1.75v7.5H.375z"/><path stroke-miterlimit="10" d="M47.127 26.45V8.128c0-4.143-3.36-7.502-7.5-7.502H9.625c-4.142 0-7.5 3.36-7.5 7.5v64.998c0 4.145 3.358 7.502 7.5 7.502h30.003c4.14 0 7.5-3.357 7.5-7.498V59.374z" fill="none" stroke="#000" stroke-width="1.25" stroke-linecap="round" stroke-linejoin="round"/><path stroke-miterlimit="10" d="M43.507 40.448V14.442c0-.688-.564-1.248-1.25-1.248h-35c-.687 0-1.38.495-1.38 1.182v52.5c0 .687.562 1.247 1.247 1.248l35.133.066c.686.002 1.25-.562 1.25-1.248zM28.627 74.126c0 2.208-1.792 4-4 4-2.212 0-4-1.792-4-4 0-2.21 1.788-4 4-4 2.208 0 4 1.79 4 4z" fill="none" stroke="#000" stroke-width=".75" stroke-linecap="round" stroke-linejoin="round"/><circle stroke-miterlimit="10" cx="24.626" cy="3.876" r=".374" fill="none" stroke="#000" stroke-width=".75" stroke-linecap="round" stroke-linejoin="round"/><circle stroke-miterlimit="10" cx="15.625" cy="6.875" r=".999" fill="none" stroke="#000" stroke-width=".75" stroke-linecap="round" stroke-linejoin="round"/><path stroke-miterlimit="10" d="M19.625 6.875h10z" fill="none" stroke="#000" stroke-width=".75" stroke-linecap="round" stroke-linejoin="round"/></svg>