<svg width="90" height="80" xmlns="http://www.w3.org/2000/svg"><path d="M0 51.791C0 22.982 26.598 5.429 30.729 3.241c2.992-1.63 5.762-2.725 7.66-2.725 1.653 0 2.747.804 2.747 2.189 0 1.384-1.385 3.015-2.747 4.109C34.57 9.561 23.85 23.831 23.85 37.275c0 3.551 1.921 6.834 4.109 7.95 2.479 1.362 14.002 3.841 14.002 18.357 0 8.509-6.856 15.9-16.459 15.9C12.886 79.483 0 69.903 0 51.791zm48.014 0c0-28.809 26.621-46.362 30.73-48.55C81.76 1.611 84.506.516 86.426.516c1.652 0 2.725.804 2.725 2.189 0 1.384-1.361 3.015-2.725 4.109-3.84 2.747-14.537 17.017-14.537 30.461 0 3.551 1.92 6.834 4.109 7.95C78.477 46.588 90 49.066 90 63.583c0 8.509-6.879 15.9-16.482 15.9-12.596 0-25.504-9.58-25.504-27.692z" fill="#000" fill-rule="nonzero"/></svg>