<svg xmlns="http://www.w3.org/2000/svg" version="1" viewBox="0 0 81.25 81.25"><path stroke-miterlimit="10" d="M70.992 30.752c.396-1.478.63-3.02.63-4.626 0-9.942-8.058-18-18-18-6.95 0-12.96 3.942-15.965 9.707-1.348-.453-2.787-.708-4.286-.708-7.455 0-13.498 6.045-13.498 13.5-6.21 0-11.25 5.038-11.25 11.252 0 5.615 4.12 10.256 9.5 11.1v-12.35c0-2.764 2.24-5.002 5-5.002h45c2.763 0 5.002 2.238 5.002 5V52.47c4.368-1.547 7.5-5.7 7.5-10.597 0-5.66-4.186-10.332-9.632-11.12z" fill="none" stroke="#000" stroke-width="1.25" stroke-linecap="round" stroke-linejoin="round"/><path stroke-miterlimit="10" d="M68.122 35.625c2.764 0 5.003 2.238 5.003 5v32.5H18.123v-32.5c0-2.762 2.24-5 5-5z" fill="none" stroke="#000" stroke-width="1.25" stroke-linecap="round" stroke-linejoin="round"/><path stroke-miterlimit="10" d="M18.123 52.977c-5.38-.844-9.5-5.484-9.5-11.1 0-6.214 5.04-11.252 11.25-11.252 0-6.346 4.383-11.653 10.284-13.1V5.55c0-2.718-2.205-4.923-4.924-4.923H5.543C2.827.625.626 2.83.626 5.548v42.654c0 2.72 2.2 4.923 4.92 4.923h12.578z" fill="none" stroke="#000" stroke-width="1.25" stroke-linecap="round" stroke-linejoin="round"/><path stroke-miterlimit="10" d="M10.14 4.73c0 .36-.292.655-.657.655-.362 0-.655-.295-.655-.656 0-.363.293-.66.655-.66.365 0 .657.296.657.66zM12.108 4.73h6.563zM8.624 41.877c0-6.214 5.038-11.252 11.25-11.252 0-5.425 3.207-10.09 7.82-12.233V9.65c0-.45-.37-.82-.82-.82H3.904c-.45 0-.82.37-.82.82v34.453c0 .45.37.82.82.82H9.05c-.27-.97-.426-1.988-.426-3.046z" fill="none" stroke="#000" stroke-width=".75" stroke-linecap="round" stroke-linejoin="round"/><path stroke-miterlimit="10" d="M35.624 26.126c0-2.994.74-5.81 2.033-8.293-1.292 2.482-2.033 5.3-2.033 8.293z" fill="none" stroke="#000" stroke-width="1.25" stroke-linecap="round" stroke-linejoin="round"/><path stroke-miterlimit="10" fill="none" stroke="#000" stroke-width=".75" stroke-linecap="round" stroke-linejoin="round" d="M51.874 43.127h17.5v29.998h-17.5zM21.87 63.126h30v10h-30z"/><path stroke-miterlimit="10" fill="none" stroke="#000" stroke-width=".75" stroke-linecap="round" stroke-linejoin="round" d="M21.87 43.127h30v20h-30zM66.875 40.626h1.247c.692 0 1.25.56 1.25 1.25v1.25h-2.497zM21.875 43.125v-1.25c0-.69.558-1.25 1.247-1.25h38.755v2.5zM47.5 38.876c.344 0 .626-.28.626-.625 0-.344-.282-.625-.627-.625h-3.75c-.347 0-.626.28-.626.626 0 .345.28.626.627.626zM64.374 40.626h2.5v2.5h-2.5z"/><path stroke-miterlimit="10" fill="none" stroke="#000" stroke-width=".75" stroke-linecap="round" stroke-linejoin="round" d="M61.877 40.626h2.497v2.5h-2.497zM65.625 45.625c.686 0 1.25.563 1.25 1.25v8.75c0 .69-.564 1.25-1.25 1.25H55.623c-.686 0-1.25-.562-1.25-1.25v-8.75c0-.687.564-1.25 1.25-1.25zM35.624 73.125v-6.25c0-.687-.564-1.248-1.25-1.248l-8.75-.002c-.69 0-1.252.563-1.252 1.25v6.25zM24.372 55.626h15v5h-15zM48.123 45.625c.686 0 1.25.563 1.25 1.25v5c0 .688-.564 1.25-1.25 1.25h-22.5c-.688 0-1.25-.562-1.25-1.25v-5c0-.688.562-1.25 1.25-1.25zM54.372 59.374h12.503v2.5H54.372zM54.372 64.375h7.5v2.5h-7.5z"/><path stroke-miterlimit="10" d="M80.625 76.875v-1.25c0-1.38-1.12-2.5-2.502-2.5h-65c-1.38 0-2.5 1.12-2.5 2.5v1.25l5.264 2.632c1.23.615 3.363 1.118 4.737 1.118h50.003c1.375 0 3.504-.503 4.733-1.118z" fill="none" stroke="#000" stroke-width="1.25" stroke-linecap="round" stroke-linejoin="round"/><path stroke-miterlimit="10" d="M10.626 76.875h70zM53.125 73.125l-.813 1.14c-.24.337-.775.61-1.186.61H40.123c-.41 0-.943-.273-1.185-.61l-.813-1.14zM38.122 65.625h11.25v2.5h-11.25zM41.873 55.626h7.5v2.5h-7.5z" fill="none" stroke="#000" stroke-width=".75" stroke-linecap="round" stroke-linejoin="round"/><path stroke-miterlimit="10" d="M70.992 30.752c.396-1.478.63-3.02.63-4.626 0-9.942-8.058-18-18-18-6.95 0-12.96 3.942-15.965 9.707-1.348-.453-2.787-.708-4.286-.708-7.455 0-13.498 6.045-13.498 13.5-6.21 0-11.25 5.038-11.25 11.252 0 5.615 4.12 10.256 9.5 11.1v-12.35c0-2.764 2.24-5.002 5-5.002h45c2.763 0 5.002 2.238 5.002 5V52.47c4.368-1.547 7.5-5.7 7.5-10.597 0-5.66-4.186-10.332-9.632-11.12z" fill="none" stroke="#000" stroke-width="1.25" stroke-linecap="round" stroke-linejoin="round"/><path stroke-miterlimit="10" fill="none" stroke="#000" stroke-width=".75" stroke-linecap="round" stroke-linejoin="round" d="M6.836 12.578h17.11v5H6.835zM19.873 30.625c0-3.607 1.423-6.876 3.728-9.298H6.837v11.096h6.953c1.752-1.133 3.84-1.798 6.083-1.798z"/></svg>