<?xml version="1.0" encoding="UTF-8"?>
<svg width="2148px" height="1236px" viewBox="0 0 2148 1236" version="1.1" xmlns="http://www.w3.org/2000/svg" xmlns:xlink="http://www.w3.org/1999/xlink">
    <!-- Generator: Sketch 47.1 (45422) - http://www.bohemiancoding.com/sketch -->
    <title>Artboard</title>
    <desc>Created with Sketch.</desc>
    <defs>
        <linearGradient x1="0%" y1="50%" x2="100%" y2="50%" id="linearGradient-1">
            <stop stop-color="#000000" stop-opacity="0.21" offset="0%"></stop>
            <stop stop-color="#FFFFFF" stop-opacity="0.21" offset="100%"></stop>
        </linearGradient>
        <path d="M423.424582,373.000304 L1977.57542,373.000304 C2011.56985,373.000304 2021.10861,373.000304 2035.74442,377.921354 C2053.04735,384.24382 2066.75547,397.952194 2073.07891,415.25572 C2078.00027,429.890118 2078.00027,439.430146 2078.00027,473.425626 L2078.00027,1507.57531 C2078.00027,1541.57079 2078.00027,1551.10958 2073.07891,1565.74521 C2066.75547,1583.0475 2053.04735,1596.75588 2035.74442,1603.07834 C2021.10861,1608.00063 2011.56985,1608.00063 1977.57542,1608.00063 L423.424582,1608.00063 C389.430146,1608.00063 379.891393,1608.00063 365.255583,1603.07834 C347.952647,1596.75588 334.244533,1583.0475 327.92109,1565.74521 C322.999733,1551.10958 322.999733,1541.57079 322.999733,1507.57531 L322.999733,473.425626 C322.999733,439.430146 322.999733,429.890118 327.92109,415.25572 C334.244533,397.952194 347.952647,384.24382 365.255583,377.921354 C379.891393,373.000304 389.430146,373.000304 423.424582,373.000304 Z" id="path-2"></path>
        <path d="M2072.12547,1538.99961 C2072.12547,1555.56874 2058.69279,1569.00005 2042.12424,1569.00005 L358.999799,1569.00005 C342.431251,1569.00005 329.000315,1555.56874 329.000315,1538.99961 L329.000315,559.000226 L329.000315,558.994256 L329.000315,557.08505 L329.000315,470.91407 C329.000315,439.799624 329.000315,431.069096 333.504081,417.67361 C339.291892,401.837588 351.837099,389.291036 367.673654,383.503718 C381.06965,378.99995 389.799409,378.99995 420.915226,378.99995 L1980.08477,378.99995 C2011.20059,378.99995 2019.93035,378.99995 2033.32635,383.503718 C2049.1629,389.291036 2061.70811,401.837588 2067.49592,417.67361 C2071.99968,431.069096 2071.99968,439.799624 2071.99968,470.91407 L2071.99968,555.296438 C2072.07481,556.522676 2072.12547,557.754884 2072.12547,559.000226 L2072.12547,1538.99961 Z" id="path-3"></path>
        <filter x="-0.1%" y="-0.2%" width="100.3%" height="100.4%" filterUnits="objectBoundingBox" id="filter-5">
            <feMorphology radius="3.9" operator="erode" in="SourceAlpha" result="shadowSpreadInner1"></feMorphology>
            <feGaussianBlur stdDeviation="0.55" in="shadowSpreadInner1" result="shadowBlurInner1"></feGaussianBlur>
            <feOffset dx="0" dy="0" in="shadowBlurInner1" result="shadowOffsetInner1"></feOffset>
            <feComposite in="shadowOffsetInner1" in2="SourceAlpha" operator="arithmetic" k2="-1" k3="1" result="shadowInnerInner1"></feComposite>
            <feColorMatrix values="0 0 0 0 0   0 0 0 0 0   0 0 0 0 0  0 0 0 0.44 0" type="matrix" in="shadowInnerInner1" result="shadowMatrixInner1"></feColorMatrix>
            <feMorphology radius="1.7" operator="erode" in="SourceAlpha" result="shadowSpreadInner2"></feMorphology>
            <feGaussianBlur stdDeviation="0.7" in="shadowSpreadInner2" result="shadowBlurInner2"></feGaussianBlur>
            <feOffset dx="0" dy="0" in="shadowBlurInner2" result="shadowOffsetInner2"></feOffset>
            <feComposite in="shadowOffsetInner2" in2="SourceAlpha" operator="arithmetic" k2="-1" k3="1" result="shadowInnerInner2"></feComposite>
            <feColorMatrix values="0 0 0 0 1   0 0 0 0 1   0 0 0 0 1  0 0 0 0.28 0" type="matrix" in="shadowInnerInner2" result="shadowMatrixInner2"></feColorMatrix>
            <feMerge>
                <feMergeNode in="shadowMatrixInner1"></feMergeNode>
                <feMergeNode in="shadowMatrixInner2"></feMergeNode>
            </feMerge>
        </filter>
        <linearGradient x1="0%" y1="50%" x2="100%" y2="50%" id="linearGradient-6">
            <stop stop-color="#000000" stop-opacity="0.1" offset="0%"></stop>
            <stop stop-color="#FFFFFF" stop-opacity="0.1" offset="100%"></stop>
        </linearGradient>
        <polygon id="path-7" points="2.00043 1.00005 2149.99978 1.00005 2149.99978 13.00002 2.00043 13.00002"></polygon>
        <filter x="-0.0%" y="-3.3%" width="100.0%" height="106.7%" filterUnits="objectBoundingBox" id="filter-8">
            <feOffset dx="0" dy="1" in="SourceAlpha" result="shadowOffsetInner1"></feOffset>
            <feComposite in="shadowOffsetInner1" in2="SourceAlpha" operator="arithmetic" k2="-1" k3="1" result="shadowInnerInner1"></feComposite>
            <feColorMatrix values="0 0 0 0 0   0 0 0 0 0   0 0 0 0 0  0 0 0 0.14 0" type="matrix" in="shadowInnerInner1"></feColorMatrix>
        </filter>
        <linearGradient x1="0%" y1="50%" x2="100%" y2="50%" id="linearGradient-9">
            <stop stop-color="#000000" offset="0%"></stop>
            <stop stop-color="#FFFFFF" offset="100%"></stop>
            <stop stop-color="#FFFFFF" offset="200%"></stop>
        </linearGradient>
        <linearGradient x1="0%" y1="50%" x2="100%" y2="50%" id="linearGradient-10">
            <stop stop-color="#FFFFFF" offset="0%"></stop>
            <stop stop-color="#FFFFFF" offset="100%"></stop>
            <stop stop-color="#000000" offset="200%"></stop>
        </linearGradient>
        <linearGradient x1="0%" y1="50%" x2="100%" y2="50%" id="linearGradient-11">
            <stop stop-color="#000000" stop-opacity="0.61" offset="0%"></stop>
            <stop stop-color="#EAEAEA" stop-opacity="0.61" offset="100%"></stop>
            <stop stop-color="#FFFFFF" stop-opacity="0.61" offset="200%"></stop>
        </linearGradient>
        <linearGradient x1="0%" y1="50%" x2="100%" y2="50%" id="linearGradient-12">
            <stop stop-color="#000000" stop-opacity="0.12" offset="0%"></stop>
            <stop stop-color="#FFFFFF" stop-opacity="0.12" offset="100%"></stop>
        </linearGradient>
        <linearGradient x1="50%" y1="0%" x2="50%" y2="100%" id="linearGradient-13">
            <stop stop-color="#FFFFFF" stop-opacity="0.61" offset="0%"></stop>
            <stop stop-color="#000000" stop-opacity="0.61" offset="100%"></stop>
        </linearGradient>
        <path d="M2.00043,13.000008 L2149.99978,13.000008 C2137.30458,20.927445 2024.70619,53.448345 1649.99984,44.999963 L479.999952,44.999963 C123.538383,52.804721 19.956978,23.906227 2.00043,13.000008 Z" id="path-14"></path>
        <polygon id="path-15" points="2129.00067 19.000059 2129.00067 19.999986 22.999666 19.999986 22.999666 19.000059"></polygon>
        <filter x="-0.0%" y="-16.7%" width="100.0%" height="166.7%" filterUnits="objectBoundingBox" id="filter-16">
            <feOffset dx="0" dy="1" in="SourceAlpha" result="shadowOffsetOuter1"></feOffset>
            <feColorMatrix values="0 0 0 0 1   0 0 0 0 1   0 0 0 0 1  0 0 0 0.23 0" type="matrix" in="shadowOffsetOuter1"></feColorMatrix>
        </filter>
        <path d="M869.999885,1.000044 L910.000075,1.000044 L910.000075,16.999974 C910.000075,16.999974 869.999885,16.215444 869.999885,11.99997 L869.999885,1.000044 Z M1281.00012,1.000044 L1281.00012,11.99997 C1281.00012,16.215444 1240.99993,16.999974 1240.99993,16.999974 L1240.99993,1.000044 L1281.00012,1.000044 Z M910.000075,1.000044 L1240.99993,1.000044 L1240.99993,16.999974 L910.000075,16.999974 L910.000075,1.000044 Z" id="path-17"></path>
        <filter x="-0.1%" y="-2.8%" width="100.2%" height="111.1%" filterUnits="objectBoundingBox" id="filter-18">
            <feOffset dx="0" dy="1" in="SourceAlpha" result="shadowOffsetOuter1"></feOffset>
            <feColorMatrix values="0 0 0 0 1   0 0 0 0 1   0 0 0 0 1  0 0 0 0.06 0" type="matrix" in="shadowOffsetOuter1"></feColorMatrix>
        </filter>
        <path d="M7.499934,4.000054 C9.985274,4.000054 11.999968,6.014693 11.999968,8.499967 C11.999968,10.985241 9.985274,12.99999 7.499934,12.99999 C5.014781,12.99999 3.000087,10.985241 3.000087,8.499967 C3.000087,6.014693 5.014781,4.000054 7.499934,4.000054 Z" id="path-19"></path>
        <filter x="-27.3%" y="-27.3%" width="154.5%" height="154.5%" filterUnits="objectBoundingBox" id="filter-20">
            <feOffset dx="0" dy="0" in="SourceAlpha" result="shadowOffsetOuter1"></feOffset>
            <feGaussianBlur stdDeviation="1" in="shadowOffsetOuter1" result="shadowBlurOuter1"></feGaussianBlur>
            <feColorMatrix values="0 0 0 0 1   0 0 0 0 1   0 0 0 0 1  0 0 0 0.1 0" type="matrix" in="shadowBlurOuter1"></feColorMatrix>
        </filter>
        <filter x="-22.7%" y="-22.7%" width="145.5%" height="145.5%" filterUnits="objectBoundingBox" id="filter-21">
            <feOffset dx="0" dy="1" in="SourceAlpha" result="shadowOffsetInner1"></feOffset>
            <feComposite in="shadowOffsetInner1" in2="SourceAlpha" operator="arithmetic" k2="-1" k3="1" result="shadowInnerInner1"></feComposite>
            <feColorMatrix values="0 0 0 0 0   0 0 0 0 0   0 0 0 0 0  0 0 0 0.4 0" type="matrix" in="shadowInnerInner1"></feColorMatrix>
        </filter>
    </defs>
    <g id="Page-1" stroke="none" stroke-width="1" fill="none" fill-rule="evenodd">
        <g id="Artboard" transform="translate(-423.000000, -378.000000)">
            <g id="Macbook" transform="translate(296.000000, 5.000000)">
                <g id="Top">
                    <g id="Rectangle-2">
                        <use fill="#323134" xlink:href="#path-2"></use>
                        <use fill="url(#linearGradient-1)" style="mix-blend-mode: multiply;" xlink:href="#path-2"></use>
                    </g>
                    <path d="M2072.12547,1539.00013 C2072.12547,1572.13693 2045.26185,1598.99996 2012.12475,1598.99996 L388.999283,1598.99996 C355.862187,1598.99996 329.000315,1572.13693 329.000315,1539.00013 L329.000315,1508.99999 L329.000315,1508.99766 L329.000315,1460.91461 C329.000315,1429.80002 329.000315,1421.06928 333.504081,1407.67411 C339.291892,1391.8378 351.837099,1379.29145 367.673654,1373.50396 C381.06965,1368.99984 389.799409,1368.99984 420.915226,1368.99984 L1980.08477,1368.99984 C2011.20059,1368.99984 2019.93035,1368.99984 2033.32635,1373.50396 C2049.1629,1379.29145 2061.70811,1391.8378 2067.49592,1407.67411 C2071.99968,1421.06928 2071.99968,1429.80002 2071.99968,1460.91461 L2071.99968,1505.29645 C2072.07481,1506.5225 2072.12547,1507.75507 2072.12547,1508.99999 L2072.12547,1539.00013 Z" id="Rectangle-2" fill="#141519"></path>
                    <g id="Rectangle-2">
                        <mask id="mask-4" fill="white">
                            <use xlink:href="#path-3"></use>
                        </mask>
                        <g>
                            <use fill="#000000" fill-rule="evenodd" xlink:href="#path-3"></use>
                            <use fill="black" fill-opacity="1" filter="url(#filter-5)" xlink:href="#path-3"></use>
                            <path stroke="#0F0F0F" stroke-width="1" d="M2071.62547,1538.99961 L2071.62547,559.000226 C2071.62547,557.858592 2071.5831,556.673391 2071.49968,555.296438 L2071.49968,470.91407 C2071.49968,440.004553 2071.21491,433.644091 2068.96172,424.445782 C2068.44433,422.333656 2067.81203,420.182758 2067.0263,417.845248 C2061.28881,402.146895 2048.85218,389.709828 2033.16701,383.97765 C2030.81674,383.187485 2028.6655,382.55511 2026.55305,382.037687 C2017.35488,379.784692 2010.99455,379.49995 1980.08477,379.49995 L420.915226,379.49995 C390.005454,379.49995 383.64512,379.784692 374.446948,382.037687 C372.334497,382.55511 370.183256,383.187485 367.845274,383.973342 C352.147818,389.709828 339.711194,402.146895 333.978011,417.832953 C333.187971,420.182758 332.555666,422.333656 332.038285,424.445782 C329.785088,433.644091 329.500315,440.004553 329.500315,470.91407 L329.500315,1538.99961 C329.500315,1555.29258 342.707376,1568.50005 358.999799,1568.50005 L2042.12424,1568.50005 C2058.417,1568.50005 2071.62547,1555.29224 2071.62547,1538.99961 Z"></path>
                        </g>
                        <polygon id="Rectangle-4" fill="#1D1E22" mask="url(#mask-4)" points="327.999908 1516.99994 2068.00009 1516.99994 2068.00009 1577 327.999908 1577"></polygon>
                    </g>
                    <text id="Ubuntu" font-family="Helvetica" font-size="30" font-weight="normal" letter-spacing="-1.2" fill="#BEBDC2">
                        <tspan x="1156" y="1551">Ubuntu</tspan>
                    </text>
                </g>
                <g id="Bottom" transform="translate(125.000000, 1564.000000)">
                    <g id="Rectangle-1">
                        <use fill="#3D3D3E" fill-rule="evenodd" xlink:href="#path-7"></use>
                        <use fill="url(#linearGradient-6)" fill-rule="evenodd" style="mix-blend-mode: multiply;" xlink:href="#path-7"></use>
                        <use fill="black" fill-opacity="1" filter="url(#filter-8)" xlink:href="#path-7"></use>
                    </g>
                    <polygon id="gradient" fill="url(#linearGradient-9)" opacity="0.7" style="mix-blend-mode: multiply;" points="2070.00007 1.00005 2150.00001 1.00005 2150.00001 13.00002 2070.00007 13.00002"></polygon>
                    <polygon id="gradient" fill="url(#linearGradient-10)" opacity="0.7" style="mix-blend-mode: multiply;" points="1.999956 1.00005 82.000044 1.00005 82.000044 13.00002 1.999956 13.00002"></polygon>
                    <g id="bottom">
                        <use fill="#323134" xlink:href="#path-14"></use>
                        <use fill="url(#linearGradient-11)" style="mix-blend-mode: multiply;" xlink:href="#path-14"></use>
                        <use fill="url(#linearGradient-11)" style="mix-blend-mode: multiply;" xlink:href="#path-14"></use>
                        <use fill="url(#linearGradient-12)" style="mix-blend-mode: multiply;" xlink:href="#path-14"></use>
                        <use fill="url(#linearGradient-13)" style="mix-blend-mode: multiply;" xlink:href="#path-14"></use>
                    </g>
                    <g id="Shape-1" opacity="0.1">
                        <use fill="black" fill-opacity="1" filter="url(#filter-16)" xlink:href="#path-15"></use>
                        <use fill="#0A0A0A" fill-rule="evenodd" xlink:href="#path-15"></use>
                    </g>
                    <g id="Combined-shape-21">
                        <use fill="black" fill-opacity="1" filter="url(#filter-18)" xlink:href="#path-17"></use>
                        <use fill="#323134" fill-rule="evenodd" xlink:href="#path-17"></use>
                    </g>
                    <path d="M869.99993,1.000044 L909.999906,1.000044 L909.999906,16.999974 C909.999906,16.999974 869.99993,16.215444 869.99993,11.99997 L869.99993,1.000044 Z" id="gradient" fill="url(#linearGradient-10)" opacity="0.5" style="mix-blend-mode: multiply;"></path>
                    <path d="M1281.00003,1.000044 L1241.00005,1.000044 L1241.00005,16.999974 C1241.00005,16.999974 1281.00003,16.215444 1281.00003,11.99997 L1281.00003,1.000044 Z" id="gradient" fill="url(#linearGradient-9)" opacity="0.5" style="mix-blend-mode: multiply;"></path>
                    <g id="screws" transform="translate(199.000000, 28.000000)" fill="#000000">
                        <path d="M1141.99997,1.999976 C1148.07517,1.999976 1153.00005,2.89548 1153.00005,3.999952 C1153.00005,5.104544 1148.07517,6.000048 1141.99997,6.000048 C1135.92495,6.000048 1131.00005,5.104544 1131.00005,3.999952 C1131.00005,2.89548 1135.92495,1.999976 1141.99997,1.999976 Z" id="Ellipse-1" opacity="0.1"></path>
                        <path d="M1141.5,3.000024 C1143.98534,3.000024 1146.00003,3.447772 1146.00003,3.999952 C1146.00003,4.552248 1143.98534,5 1141.5,5 C1139.01466,5 1136.99997,4.552248 1136.99997,3.999952 C1136.99997,3.447772 1139.01466,3.000024 1141.5,3.000024 Z" id="Ellipse-1" opacity="0.3"></path>
                        <path d="M611.999925,1.999976 C618.075125,1.999976 623.000025,2.89548 623.000025,3.999952 C623.000025,5.104544 618.075125,6.000048 611.999925,6.000048 C605.9249,6.000048 601.000025,5.104544 601.000025,3.999952 C601.000025,2.89548 605.9249,1.999976 611.999925,1.999976 Z" id="Ellipse-1" opacity="0.1"></path>
                        <path d="M611.499974,3.000024 C613.985301,3.000024 616.000002,3.447772 616.000002,3.999952 C616.000002,4.552248 613.985301,5 611.499974,5 C609.014634,5 606.999933,4.552248 606.999933,3.999952 C606.999933,3.447772 609.014634,3.000024 611.499974,3.000024 Z" id="Ellipse-1" opacity="0.3"></path>
                        <path d="M11.999975,1.999976 C18.075175,1.999976 23.000075,2.89548 23.000075,3.999952 C23.000075,5.104544 18.075175,6.000048 11.999975,6.000048 C5.92495,6.000048 1.00005,5.104544 1.00005,3.999952 C1.00005,2.89548 5.92495,1.999976 11.999975,1.999976 Z" id="Ellipse-1" opacity="0.1"></path>
                        <path d="M11.5,3.000024 C13.98534,3.000024 16.000041,3.447772 16.000041,3.999952 C16.000041,4.552248 13.98534,5 11.5,5 C9.014673,5 6.999972,4.552248 6.999972,3.999952 C6.999972,3.447772 9.014673,3.000024 11.5,3.000024 Z" id="Ellipse-1" opacity="0.3"></path>
                        <path d="M1741,1.999976 C1747.07522,1.999976 1751.99992,2.89548 1751.99992,3.999952 C1751.99992,5.104544 1747.07522,6.000048 1741,6.000048 C1734.92481,6.000048 1730.00008,5.104544 1730.00008,3.999952 C1730.00008,2.89548 1734.92481,1.999976 1741,1.999976 Z" id="Ellipse-1" opacity="0.1"></path>
                        <path d="M1740.50003,3.000024 C1742.9852,3.000024 1745.00007,3.447772 1745.00007,3.999952 C1745.00007,4.552248 1742.9852,5 1740.50003,5 C1738.0147,5 1736.00001,4.552248 1736.00001,3.999952 C1736.00001,3.447772 1738.0147,3.000024 1740.50003,3.000024 Z" id="Ellipse-1" opacity="0.3"></path>
                    </g>
                </g>
                <g id="Camera" transform="translate(1190.000000, 413.000000)">
                    <path d="M7.49994,1.999952 C11.0898,1.999952 13.999995,4.910096 13.999995,8.499968 C13.999995,12.089824 11.0898,14.999968 7.49994,14.999968 C3.910065,14.999968 1.00005,12.089824 1.00005,8.499968 C1.00005,4.910096 3.910065,1.999952 7.49994,1.999952 Z" id="Ellipse-3" fill="#0C100F"></path>
                    <g id="Ellipse-4">
                        <use fill="black" fill-opacity="1" filter="url(#filter-20)" xlink:href="#path-19"></use>
                        <use fill="#0A0D0C" fill-rule="evenodd" xlink:href="#path-19"></use>
                        <use fill="black" fill-opacity="1" filter="url(#filter-21)" xlink:href="#path-19"></use>
                    </g>
                    <path d="M7.499936,6.000024 C8.880736,6.000024 9.999936,7.11928 9.999936,8.49996 C9.999936,9.880768 8.880736,11.000024 7.499936,11.000024 C6.119312,11.000024 4.999936,9.880768 4.999936,8.49996 C4.999936,7.11928 6.119312,6.000024 7.499936,6.000024 Z" id="Ellipse-5" fill="#000000"></path>
                    <path d="M8.000078,6.99995 C8.552252,6.99995 9.000002,7.4477 9.000002,8 C9.000002,8.552294 8.552252,9.000044 8.000078,9.000044 C7.447724,9.000044 6.999968,8.552294 6.999968,8 C6.999968,7.4477 7.447724,6.99995 8.000078,6.99995 Z" id="Ellipse-6" fill="#5D9FE3" opacity="0.2"></path>
                </g>
            </g>
        </g>
    </g>
</svg>